<svg id="Layer_1" data-name="Layer 1" xmlns="http://www.w3.org/2000/svg" viewBox="0 0 173.59 22.41"><defs><style>.cls-1{fill:#fff;}</style></defs><title>logo</title><path class="cls-1" d="M14.53,16.32h-.1l0-.1L12.52,7.3C12,5,11.66,4.64,10.68,4.64S9.39,5,8.89,7.3L7,16.22l0,.1H6.68l0-.1L4.85,8.55l-.07-.29A6.31,6.31,0,0,1,4.57,7a.8.8,0,0,1,.68-.91h.13a2.76,2.76,0,0,1,.64.1,2.7,2.7,0,0,0,.56.08.86.86,0,0,0,.86-.82.69.69,0,0,0-.67-.71H6.7a7.81,7.81,0,0,0-1.27.13A7.64,7.64,0,0,1,4.08,5a8.1,8.1,0,0,1-1.39-.15A8.19,8.19,0,0,0,1.38,4.7C0,4.7,0,5.23,0,5.41a.87.87,0,0,0,.87.82,1.63,1.63,0,0,0,.43-.08,2.13,2.13,0,0,1,.56-.1c.58,0,.71.52,1,1.38l0,.17,2.27,8.54C5.45,17.43,5.91,18,6.71,18c1,0,1.44-.53,1.89-2.57l2-8.87,0-.1h.25l0,.1,1.89,9c.45,2.06.94,2.42,1.79,2.42s1.33-.45,1.84-2.43L18,9.38c.73-2.71,1-3.33,1.68-3.33a1.64,1.64,0,0,1,.44.09,1.8,1.8,0,0,0,.45.09.87.87,0,0,0,.77-.82.7.7,0,0,0-.68-.71h-.07a7.81,7.81,0,0,0-1.27.13A7.64,7.64,0,0,1,18,5a9.23,9.23,0,0,1-1.39-.15,8.19,8.19,0,0,0-1.31-.13C14,4.7,14,5.23,14,5.41a.8.8,0,0,0,.79.82h0a3.81,3.81,0,0,0,.59-.08,3.1,3.1,0,0,1,.68-.1.73.73,0,0,1,.75.7s0,.08,0,.12A5.4,5.4,0,0,1,16.66,8l-2,8.23,0,.1ZM25.69,3.15a1.35,1.35,0,1,0-1.33-1.36v0A1.36,1.36,0,0,0,25.69,3.15Zm3.1,13a1.93,1.93,0,0,0-.58.08,1.55,1.55,0,0,1-.43.07c-.5,0-.79-.42-.79-1.17V5.67c0-.65-.2-1-.59-1a1.87,1.87,0,0,0-.58.12A2.59,2.59,0,0,1,25,5a3.2,3.2,0,0,1-.82-.14,3.17,3.17,0,0,0-.86-.15.76.76,0,0,0-.77.75v.07a.7.7,0,0,0,.68.72h.06a3,3,0,0,0,.51-.07,3,3,0,0,1,.66-.08c.74,0,.87.59.87,2.26v5.71c0,1.54-.13,2.27-.87,2.27a3.74,3.74,0,0,1-.66-.09,3,3,0,0,0-.51-.07.71.71,0,0,0-.74.65v.07a.85.85,0,0,0,.74.82,7,7,0,0,0,1.21-.13,8.27,8.27,0,0,1,1.49-.15,7.38,7.38,0,0,1,1.49.15,6.32,6.32,0,0,0,1.14.13.92.92,0,0,0,1-.82.7.7,0,0,0-.68-.72ZM35.5,6.22h-.17V6.1c0-1.06-.07-1.41-.44-1.41a2.34,2.34,0,0,0-.7.13,2.81,2.81,0,0,1-.91.16,2.29,2.29,0,0,1-.81-.16,1.58,1.58,0,0,0-.56-.13.94.94,0,0,0-.82.82.69.69,0,0,0,.67.72h.07a3,3,0,0,0,.51-.07A2.91,2.91,0,0,1,33,6.08c.73,0,.87.6.87,2.29V14c0,1.56-.09,2.3-.87,2.3a3.62,3.62,0,0,1-.66-.09,3,3,0,0,0-.51-.07.71.71,0,0,0-.74.65v.07c0,.52.35.82,1,.82a6.32,6.32,0,0,0,1.14-.13,8.4,8.4,0,0,1,1.59-.15,7.07,7.07,0,0,1,1.52.16,6.61,6.61,0,0,0,1.08.12c.61,0,1-.3,1-.82a.7.7,0,0,0-.68-.72h-.07a2.87,2.87,0,0,0-.5.07,3,3,0,0,1-.67.08c-.73,0-.86-.77-.86-2.29V11c0-2.58.36-3.16.68-3.66a3.87,3.87,0,0,1,3.22-1.54,3.18,3.18,0,0,1,2.88,1.47c.43.82.43,1.36.43,3v3.77c0,1.55-.09,2.29-.86,2.29a3.73,3.73,0,0,1-.67-.09,2.22,2.22,0,0,0-.51-.06.69.69,0,0,0-.74.64v.07c0,.69.61.8,1,.8a6.22,6.22,0,0,0,1.14-.13,8.4,8.4,0,0,1,1.59-.15,7.23,7.23,0,0,1,1.53.16,6.37,6.37,0,0,0,1.07.12c.36,0,1-.11,1-.8a.69.69,0,0,0-.68-.71h-.06a2.73,2.73,0,0,0-.5.06,4,4,0,0,1-.67.09c-.73,0-.87-.77-.87-2.29V9.31c0-1.47-.08-2.68-1.13-3.63a5.34,5.34,0,0,0-3.61-1.34A5.07,5.07,0,0,0,35.6,6.17l0,0ZM56.79,4.51a5,5,0,0,0-1.49-.17c-2.3,0-4.74,1.39-4.74,4a3.28,3.28,0,0,0,.68,2.14l.13.15-.19.05a2.57,2.57,0,0,0-2,2.46c0,1.1.63,1.81,2.06,2.3l.08,0v.23l-.09,0a3,3,0,0,0-2.3,2.89c0,3.55,4.84,3.83,6.32,3.83,3,0,6.45-1,6.45-3.95A3.76,3.76,0,0,0,58.75,15a13.35,13.35,0,0,0-4.22-.5h-.94c-.76,0-2.8,0-2.8-1.42a1.18,1.18,0,0,1,1.07-1.22,2.19,2.19,0,0,1,.74.19,7.15,7.15,0,0,0,2.88.67c2.34,0,4.72-1.43,4.72-4.18a4.07,4.07,0,0,0-1.93-3.49l-.06,0V5a1.88,1.88,0,0,1,.44-1.43,1.55,1.55,0,0,1,2.26.13l.07.1-.1.07a1,1,0,0,0-.51.74.88.88,0,0,0,.89.87,1.33,1.33,0,0,0,1.25-1.35c0-1.44-1.38-2.19-2.75-2.19a3.08,3.08,0,0,0-2.21.86A2.2,2.2,0,0,0,57,4.38v.18ZM52.16,16.59a8.16,8.16,0,0,1,3.17-.52c1.66,0,4.46.31,4.46,2.44,0,2.37-3.8,2.49-4.56,2.49a9.14,9.14,0,0,1-2.75-.39,2.4,2.4,0,0,1-1.74-2.05,2.23,2.23,0,0,1,1.42-2Zm6.32-8.1a2.91,2.91,0,0,1-3,2.78h-.1a2.76,2.76,0,0,1-3-2.51,1.93,1.93,0,0,1,0-.24,2.83,2.83,0,0,1,2.89-2.78h.12A2.94,2.94,0,0,1,58.48,8.49ZM72.12,5.2a4.4,4.4,0,0,0-2.93-.87c-2.34,0-4.85,1.26-4.85,4,0,3,3,3.37,5.45,3.65,1.33.15,2.86.55,2.86,2.21A2.28,2.28,0,0,1,71.74,16a3.51,3.51,0,0,1-2.17.62,5.85,5.85,0,0,1-3.47-1.11c-.57-.49-.6-.84-.71-2.17l0-.21c0-.5-.22-.72-.67-.72a.71.71,0,0,0-.76.67.24.24,0,0,0,0,.12,6.91,6.91,0,0,0,.1,1,7,7,0,0,1,.1,1,7.6,7.6,0,0,1-.1,1.07,7.74,7.74,0,0,0-.1,1.07.84.84,0,0,0,.74.94h.1a.68.68,0,0,0,.53-.24A1.26,1.26,0,0,0,65.52,17l0-.32.25.21a5.54,5.54,0,0,0,3.64,1.17c2.48,0,5.14-1.27,5.14-4.06,0-2.57-1.73-3.27-5.16-3.72-2.08-.27-3.14-.66-3.14-2.09s1.5-2.36,3-2.36a4.48,4.48,0,0,1,2.47.94c.52.37.61.61.61,1.6,0,.73.23,1.1.69,1.1a.76.76,0,0,0,.79-.71V8.64c0-.3,0-.6-.07-.9a6.58,6.58,0,0,1-.08-1,6.12,6.12,0,0,1,.08-1c0-.31.06-.62.07-.93a.66.66,0,0,0-.59-.72H73a.65.65,0,0,0-.54.2.9.9,0,0,0-.15.73l0,.31Zm15,4.46v.13H81.69v1.69h5.46V17h1.69v-5.5h5.45V9.78H88.83V4.36H87.15Zm16.42-3.49v-5a2.53,2.53,0,0,0-.11-.95C103.4.12,103.3,0,103,0a1.42,1.42,0,0,0-.54.12,2.37,2.37,0,0,1-.84.16,2.4,2.4,0,0,1-.7-.13,4.08,4.08,0,0,0-1-.15.86.86,0,0,0-.84.82.69.69,0,0,0,.67.72h.06a2.73,2.73,0,0,0,.51-.07,3.85,3.85,0,0,1,.67-.09.6.6,0,0,1,.61.35,4.82,4.82,0,0,1,.25,1.92V14c0,1.6-.12,2.27-.86,2.27a3.83,3.83,0,0,1-.67-.08,2.08,2.08,0,0,0-.5-.07.68.68,0,0,0-.74.65v.06a.9.9,0,0,0,1,.82,7.35,7.35,0,0,0,1.14-.12,8.18,8.18,0,0,1,1.56-.16,8.07,8.07,0,0,1,1.55.16,6.61,6.61,0,0,0,1.08.12c.59,0,1-.32,1-.82a.69.69,0,0,0-.21-.51.71.71,0,0,0-.54-.2,2.73,2.73,0,0,0-.5.06,3.73,3.73,0,0,1-.67.09c-.74,0-.86-.67-.86-2.27V10.63a5.94,5.94,0,0,1,.68-3.41,3.92,3.92,0,0,1,3.19-1.4,2.9,2.9,0,0,1,3,2.07,12.2,12.2,0,0,1,.24,3.19v3c0,1.6-.12,2.27-.86,2.27a3.72,3.72,0,0,1-.67-.08,2.24,2.24,0,0,0-.51-.07.69.69,0,0,0-.74.65v.06a.9.9,0,0,0,1,.82h0a7.1,7.1,0,0,0,1.14-.12,8.26,8.26,0,0,1,1.56-.16,8.09,8.09,0,0,1,1.56.16,6.37,6.37,0,0,0,1.07.12c.59,0,1-.32,1-.82a.73.73,0,0,0-.2-.51.78.78,0,0,0-.54-.21,3,3,0,0,0-.51.07,3.74,3.74,0,0,1-.66.09c-.75,0-.87-.67-.87-2.27v-5a4.3,4.3,0,0,0-1.31-3.5,5.47,5.47,0,0,0-3.51-1.24A4.93,4.93,0,0,0,103.78,6ZM122.8,4.33c-4.38,0-5.94,3.71-5.94,6.89S118.41,18,122.78,18a5.73,5.73,0,0,0,4.6-2A7.65,7.65,0,0,0,129,11.14a7.91,7.91,0,0,0-1.58-4.92A5.49,5.49,0,0,0,122.8,4.33Zm0,12.23a3.49,3.49,0,0,1-3.19-1.76,7.11,7.11,0,0,1-.88-3.66,7.33,7.33,0,0,1,.88-3.53A3.54,3.54,0,0,1,123,5.81a3.67,3.67,0,0,1,3.19,1.54,7.08,7.08,0,0,1,.93,3.68c0,1.67-.41,5.53-4.28,5.53ZM135.9,6.24h-.18V6.11c0-.65,0-1.1-.21-1.29a.45.45,0,0,0-.38-.13,1.72,1.72,0,0,0-.59.12,2.42,2.42,0,0,1-1.73,0,2.13,2.13,0,0,0-.61-.12.92.92,0,0,0-1,.81h0a.7.7,0,0,0,.68.71h.06a5.35,5.35,0,0,0,.89-.08,2.9,2.9,0,0,1,.6-.07c.75,0,.88.73.88,2.27V14c0,1.7-.12,2.27-.83,2.27a3.73,3.73,0,0,1-.67-.09,2.2,2.2,0,0,0-.5-.06.7.7,0,0,0-.75.65v.06a.92.92,0,0,0,1,.82h0a7.29,7.29,0,0,0,1.31-.14,8,8,0,0,1,1.38-.14,8.92,8.92,0,0,1,1.46.15,6.65,6.65,0,0,0,1.17.13.9.9,0,0,0,1-.82h0a.7.7,0,0,0-.68-.72h-.06a2.74,2.74,0,0,0-.5.07,3.85,3.85,0,0,1-.67.09c-.68,0-.94-.64-.94-2.27V10.63c0-3.37,1.06-5,3.33-5,1.15,0,2.39.73,2.39,1.91a1.33,1.33,0,0,1-.16.65l0,.08-.1,0-.11,0-.19,0a1,1,0,0,0-.92,1,1.19,1.19,0,0,0,1.25,1.1c1.48,0,2-1.29,2-2.5,0-2.38-2.06-3.47-4-3.47A3.85,3.85,0,0,0,136,6.18l0,.06Zm13.45,0h-.17V6.09c0-1.07-.06-1.4-.43-1.4a2.16,2.16,0,0,0-.71.12,2.75,2.75,0,0,1-.9.16,2.25,2.25,0,0,1-.81-.16,1.39,1.39,0,0,0-.57-.12.94.94,0,0,0-.82.81.7.7,0,0,0,.68.72h.06a3,3,0,0,0,.51-.07,3,3,0,0,1,.67-.08c.73,0,.86.6.86,2.29V14c0,1.55-.08,2.29-.86,2.29a3.73,3.73,0,0,1-.67-.09,2.73,2.73,0,0,0-.51-.07.69.69,0,0,0-.73.65.08.08,0,0,0,0,.07c0,.52.35.82,1,.82a6.32,6.32,0,0,0,1.14-.13,9.29,9.29,0,0,1,1.58-.15,7.79,7.79,0,0,1,1.53.16,6.37,6.37,0,0,0,1.07.12c.62,0,1-.3,1-.82a.69.69,0,0,0-.67-.72h-.07a2.74,2.74,0,0,0-.5.07,3.85,3.85,0,0,1-.67.09c-.73,0-.87-.78-.87-2.3V11c0-2.58.37-3.15.69-3.66a3.86,3.86,0,0,1,3.21-1.54,3.19,3.19,0,0,1,2.89,1.47c.42.82.42,1.36.42,3V14c0,1.56-.08,2.29-.86,2.29a3.73,3.73,0,0,1-.67-.09,2.73,2.73,0,0,0-.5-.06.69.69,0,0,0-.74.64v.07c0,.69.61.8,1,.8a6.32,6.32,0,0,0,1.14-.13,8.4,8.4,0,0,1,1.59-.15,7.07,7.07,0,0,1,1.52.16,6.61,6.61,0,0,0,1.08.12c.36,0,1-.11,1-.8a.69.69,0,0,0-.68-.71h-.07a2.07,2.07,0,0,0-.5.06,3.73,3.73,0,0,1-.67.09c-.73,0-.86-.77-.86-2.29V9.3c0-1.47-.08-2.67-1.13-3.63a5.36,5.36,0,0,0-3.62-1.34,5.07,5.07,0,0,0-4.15,1.83l0,0ZM164.8,16.87A5.52,5.52,0,0,0,168.44,18c2.48,0,5.15-1.27,5.15-4,0-2.58-1.74-3.27-5.16-3.73-2.09-.26-3.15-.66-3.15-2.08s1.5-2.37,3-2.37a4.53,4.53,0,0,1,2.47.94c.52.38.61.62.61,1.61,0,.73.24,1.09.69,1.09a.75.75,0,0,0,.8-.71V8.63a6.84,6.84,0,0,0-.08-.9,8.07,8.07,0,0,1-.07-1,7.75,7.75,0,0,1,.07-1,7.14,7.14,0,0,0,.08-.93.66.66,0,0,0-.6-.71.33.33,0,0,0-.14,0,.68.68,0,0,0-.54.2.9.9,0,0,0-.16.73l0,.31-.24-.2a4.34,4.34,0,0,0-2.93-.86c-2.33,0-4.84,1.25-4.84,4,0,3,3,3.37,5.44,3.65,1.34.16,2.86.55,2.86,2.21a2.28,2.28,0,0,1-.91,1.76,3.48,3.48,0,0,1-2.17.61,5.94,5.94,0,0,1-3.47-1.1c-.57-.5-.6-.85-.71-2.17l0-.22c0-.63-.35-.72-.66-.72A.71.71,0,0,0,163,13a.33.33,0,0,0,0,.14,6.78,6.78,0,0,0,.1,1,7,7,0,0,1,.1,1,6.36,6.36,0,0,1-.1,1.07,7.74,7.74,0,0,0-.1,1.07.84.84,0,0,0,.75.94h.1a.69.69,0,0,0,.53-.24A1.34,1.34,0,0,0,164.6,17l0-.31.25.2Z" transform="translate(0 0)"/></svg>